<svg
  width="512"
  height="512"
  viewBox="0 0 512 512"
  fill="none"
  xmlns="http://www.w3.org/2000/svg"
  role="img"
  aria-label="Ouwibo premium mascot mark"
>
  <defs>
    <linearGradient
      id="bg"
      x1="64"
      y1="42"
      x2="448"
      y2="470"
      gradientUnits="userSpaceOnUse"
    >
      <stop stop-color="#0F172A" />
      <stop offset="0.52" stop-color="#111827" />
      <stop offset="1" stop-color="#020617" />
    </linearGradient>
    <radialGradient
      id="auraA"
      cx="0"
      cy="0"
      r="1"
      gradientUnits="userSpaceOnUse"
      gradientTransform="translate(146 118) rotate(48) scale(230)"
    >
      <stop stop-color="#22D3EE" stop-opacity="0.58" />
      <stop offset="1" stop-color="#22D3EE" stop-opacity="0" />
    </radialGradient>
    <radialGradient
      id="auraB"
      cx="0"
      cy="0"
      r="1"
      gradientUnits="userSpaceOnUse"
      gradientTransform="translate(390 388) rotate(132) scale(260)"
    >
      <stop stop-color="#8B5CF6" stop-opacity="0.48" />
      <stop offset="1" stop-color="#8B5CF6" stop-opacity="0" />
    </radialGradient>
    <linearGradient
      id="ring"
      x1="112"
      y1="96"
      x2="414"
      y2="416"
      gradientUnits="userSpaceOnUse"
    >
      <stop stop-color="#67E8F9" />
      <stop offset="0.48" stop-color="#60A5FA" />
      <stop offset="1" stop-color="#A78BFA" />
    </linearGradient>
    <linearGradient
      id="mascot"
      x1="167"
      y1="144"
      x2="350"
      y2="358"
      gradientUnits="userSpaceOnUse"
    >
      <stop stop-color="#F8FAFC" />
      <stop offset="0.52" stop-color="#E7EEF4" />
      <stop offset="1" stop-color="#B8C5CF" />
    </linearGradient>
    <linearGradient
      id="beanie"
      x1="172"
      y1="112"
      x2="346"
      y2="216"
      gradientUnits="userSpaceOnUse"
    >
      <stop stop-color="#334155" />
      <stop offset="1" stop-color="#0F172A" />
    </linearGradient>
    <linearGradient
      id="bag"
      x1="176"
      y1="302"
      x2="334"
      y2="432"
      gradientUnits="userSpaceOnUse"
    >
      <stop stop-color="#BA8B4A" />
      <stop offset="1" stop-color="#6F4E2E" />
    </linearGradient>
    <filter
      id="shadow"
      x="54"
      y="48"
      width="404"
      height="432"
      color-interpolation-filters="sRGB"
      filterUnits="userSpaceOnUse"
    >
      <feDropShadow
        dx="0"
        dy="26"
        stdDeviation="22"
        flood-color="#020617"
        flood-opacity="0.5"
      />
    </filter>
    <clipPath id="round">
      <rect width="512" height="512" rx="108" />
    </clipPath>
  </defs>

  <g clip-path="url(#round)">
    <rect width="512" height="512" rx="108" fill="url(#bg)" />
    <rect width="512" height="512" fill="url(#auraA)" />
    <rect width="512" height="512" fill="url(#auraB)" />
    <path
      d="M96 170H416M82 256H430M98 342H414M170 84V430M256 70V444M342 88V426"
      stroke="white"
      stroke-opacity="0.035"
      stroke-width="2"
    />
    <path
      d="M92 384C142 353 198 342 260 353C322 364 376 354 430 320V512H92V384Z"
      fill="#020617"
      fill-opacity="0.42"
    />

    <g filter="url(#shadow)">
      <circle
        cx="256"
        cy="256"
        r="164"
        stroke="url(#ring)"
        stroke-width="18"
        stroke-linecap="round"
        stroke-dasharray="690 92"
      />
      <circle
        cx="256"
        cy="256"
        r="132"
        fill="#0B1220"
        fill-opacity="0.76"
        stroke="white"
        stroke-opacity="0.08"
        stroke-width="1.5"
      />

      <path
        d="M154 246C128 230 116 202 126 174C138 139 180 134 203 160"
        fill="#DCE7EE"
        stroke="#0F172A"
        stroke-width="9"
        stroke-linejoin="round"
      />
      <path
        d="M358 160C382 134 424 139 436 174C446 202 434 230 408 246"
        fill="#DCE7EE"
        stroke="#0F172A"
        stroke-width="9"
        stroke-linejoin="round"
      />
      <path
        d="M155 250C155 161 199 118 256 118C313 118 357 161 357 250C357 321 315 365 256 365C197 365 155 321 155 250Z"
        fill="url(#mascot)"
        stroke="#0F172A"
        stroke-width="10"
      />
      <path
        d="M162 211C174 143 207 108 257 108C307 108 340 143 352 211C295 191 225 191 162 211Z"
        fill="url(#beanie)"
        stroke="#0F172A"
        stroke-width="8"
        stroke-linejoin="round"
      />
      <path
        d="M173 211C223 195 293 194 341 211C346 224 344 238 336 249C287 232 224 232 176 249C168 238 167 224 173 211Z"
        fill="#1E293B"
        stroke="#0F172A"
        stroke-width="7"
        stroke-linejoin="round"
      />
      <path
        d="M199 136C237 122 281 122 318 136"
        stroke="#94A3B8"
        stroke-opacity="0.44"
        stroke-width="7"
        stroke-linecap="round"
      />
      <path
        d="M211 119C202 146 198 174 198 204M257 111C254 139 254 171 257 203M304 119C313 146 317 174 317 204"
        stroke="#020617"
        stroke-opacity="0.55"
        stroke-width="5"
        stroke-linecap="round"
      />

      <circle cx="213" cy="259" r="12" fill="#0F172A" />
      <circle cx="299" cy="259" r="12" fill="#0F172A" />
      <path
        d="M249 283C253 279 259 279 263 283C261 289 251 289 249 283Z"
        fill="#F4A7A6"
        stroke="#7F1D1D"
        stroke-width="3"
        stroke-linejoin="round"
      />
      <path
        d="M226 306C241 321 271 321 286 306"
        stroke="#0F172A"
        stroke-width="7"
        stroke-linecap="round"
      />
      <path
        d="M190 279H145M367 279H322"
        stroke="#0F172A"
        stroke-opacity="0.42"
        stroke-width="6"
        stroke-linecap="round"
      />

      <path
        d="M180 368C184 320 213 292 256 292C299 292 328 320 332 368C303 389 211 389 180 368Z"
        fill="url(#bag)"
        stroke="#0F172A"
        stroke-width="9"
        stroke-linejoin="round"
      />
      <path
        d="M216 306C237 318 276 318 297 306"
        stroke="#F5D38B"
        stroke-opacity="0.7"
        stroke-width="6"
        stroke-linecap="round"
      />
      <path
        d="M214 356H298"
        stroke="#F8FAFC"
        stroke-opacity="0.35"
        stroke-width="7"
        stroke-linecap="round"
      />
      <circle
        cx="256"
        cy="352"
        r="31"
        fill="#0F172A"
        fill-opacity="0.78"
        stroke="url(#ring)"
        stroke-width="5"
      />
      <path d="M244 354L256 330L268 354L256 363L244 354Z" fill="#67E8F9" />
      <path d="M244 359L256 368L268 359L256 382L244 359Z" fill="#A78BFA" />
    </g>

    <path
      d="M124 96L138 126L170 130L146 152L152 184L124 168L96 184L102 152L78 130L110 126L124 96Z"
      fill="#67E8F9"
      fill-opacity="0.85"
    />
    <circle cx="404" cy="118" r="11" fill="#A78BFA" fill-opacity="0.85" />
    <circle cx="106" cy="402" r="8" fill="#60A5FA" fill-opacity="0.75" />
  </g>
</svg>
