<svg
  width="512"
  height="512"
  viewBox="0 0 512 512"
  fill="none"
  xmlns="http://www.w3.org/2000/svg"
>
  <defs>
    <radialGradient id="bg" cx="50%" cy="35%" r="72%">
      <stop offset="0" stop-color="#364146" />
      <stop offset="0.55" stop-color="#1f2529" />
      <stop offset="1" stop-color="#0f1215" />
    </radialGradient>
    <linearGradient
      id="coat"
      x1="168"
      y1="290"
      x2="360"
      y2="496"
      gradientUnits="userSpaceOnUse"
    >
      <stop stop-color="#7a6a55" />
      <stop offset="1" stop-color="#4d4135" />
    </linearGradient>
    <linearGradient
      id="beanie"
      x1="151"
      y1="64"
      x2="358"
      y2="210"
      gradientUnits="userSpaceOnUse"
    >
      <stop stop-color="#565a57" />
      <stop offset="1" stop-color="#282b2c" />
    </linearGradient>
    <linearGradient
      id="fur"
      x1="118"
      y1="160"
      x2="388"
      y2="362"
      gradientUnits="userSpaceOnUse"
    >
      <stop stop-color="#f8faf7" />
      <stop offset="0.55" stop-color="#e8ece6" />
      <stop offset="1" stop-color="#cfd6d2" />
    </linearGradient>
    <filter
      id="softShadow"
      x="-20%"
      y="-20%"
      width="140%"
      height="150%"
      color-interpolation-filters="sRGB"
    >
      <feDropShadow
        dx="0"
        dy="18"
        stdDeviation="18"
        flood-color="#000"
        flood-opacity="0.45"
      />
    </filter>
  </defs>

  <rect width="512" height="512" rx="104" fill="url(#bg)" />
  <path
    d="M60 394c55-22 108-28 159-18 77 15 138 1 225-25v111H60v-68Z"
    fill="#12171a"
    opacity="0.6"
  />
  <path d="M74 126h72v116H74V126Z" fill="#22282b" opacity="0.7" />
  <path d="M366 108h72v134h-72V108Z" fill="#22282b" opacity="0.7" />
  <path
    d="M91 150h39M91 174h39M384 136h34M384 160h34"
    stroke="#819094"
    stroke-width="8"
    stroke-linecap="round"
    opacity="0.45"
  />
  <path
    d="M42 280c37-18 64-20 91-8M390 282c37-18 64-20 91-8"
    stroke="#566064"
    stroke-width="9"
    stroke-linecap="round"
    opacity="0.5"
  />

  <g filter="url(#softShadow)">
    <path
      d="M145 280c-16 12-34 32-37 65-5 58 50 101 142 101s147-41 142-99c-3-35-23-55-40-67H145Z"
      fill="url(#coat)"
    />
    <path
      d="M175 306c18 30 45 47 81 47 37 0 65-17 83-47v133c-23 7-51 10-86 10-31 0-57-3-78-9V306Z"
      fill="#d8ded9"
      opacity="0.85"
    />
    <path
      d="M154 319c-18 32-26 71-23 108M360 319c18 32 26 71 23 108"
      stroke="#2c2825"
      stroke-width="7"
      stroke-linecap="round"
      opacity="0.4"
    />

    <path
      d="M118 196c0-81 61-135 138-135s138 54 138 135c0 89-62 161-138 161s-138-72-138-161Z"
      fill="url(#fur)"
    />
    <path
      d="M117 202c-22 2-39 20-39 43 0 25 20 45 45 45h12l-18-88ZM395 202c22 2 39 20 39 43 0 25-20 45-45 45h-12l18-88Z"
      fill="#f2f5ef"
    />
    <path
      d="M151 214c-7-64 30-112 105-112s112 48 105 112c-21-20-56-32-105-32s-84 12-105 32Z"
      fill="#dce3df"
    />

    <path
      d="M150 184c12-73 48-110 107-110 58 0 94 37 106 110-62-23-128-23-213 0Z"
      fill="url(#beanie)"
    />
    <path
      d="M151 185c65-22 140-24 211 0 9 16 9 33-3 47-65-25-137-25-205 0-13-14-13-31-3-47Z"
      fill="#303536"
    />
    <path
      d="M176 104c41-19 92-22 144-2"
      stroke="#70766f"
      stroke-width="7"
      stroke-linecap="round"
      opacity="0.45"
    />
    <path
      d="M196 80c-14 20-23 57-26 111M258 69c-5 29-5 74-2 120M320 90c8 25 14 60 16 101"
      stroke="#252829"
      stroke-width="5"
      stroke-linecap="round"
      opacity="0.55"
    />

    <g fill="#b9a58c" stroke="#3d352d" stroke-width="4">
      <path d="M206 101 244 90l15 34-39 10-14-33Z" />
      <path d="M293 120 333 110l12 34-41 11-11-35Z" />
      <path d="M163 135 199 126l13 31-37 11-12-33Z" />
    </g>

    <ellipse cx="192" cy="235" rx="35" ry="43" fill="#3b1d2b" />
    <ellipse cx="320" cy="235" rx="35" ry="43" fill="#3b1d2b" />
    <circle cx="181" cy="220" r="10" fill="white" opacity="0.95" />
    <circle cx="309" cy="220" r="10" fill="white" opacity="0.95" />
    <circle cx="204" cy="253" r="5" fill="white" opacity="0.75" />
    <circle cx="333" cy="253" r="5" fill="white" opacity="0.75" />

    <path
      d="M250 261c5-7 17-7 22 0 2 4 0 12-11 13-11-1-13-9-11-13Z"
      fill="#e99b9a"
      stroke="#6d3e43"
      stroke-width="4"
    />
    <path
      d="M232 290c11 18 38 18 50 0"
      stroke="#302535"
      stroke-width="8"
      stroke-linecap="round"
    />
    <path d="M249 304h24c-3 14-21 14-24 0Z" fill="#f5d7d5" />
    <path d="M253 285h16v15h-16v-15Z" fill="#fff" />

    <path
      d="M154 283c-15 9-29 15-45 17M358 283c15 9 29 15 45 17"
      stroke="#2e2834"
      stroke-width="7"
      stroke-linecap="round"
    />
    <path
      d="M139 330c-18 4-28 17-24 33 6 19 29 11 45-15l-21-18ZM373 330c18 4 28 17 24 33-6 19-29 11-45-15l21-18Z"
      fill="#f0c3b2"
      stroke="#5b4541"
      stroke-width="5"
    />

    <path
      d="M183 342c-22 4-42 26-48 72 48 15 88 14 124-6-7-45-33-75-76-66Z"
      fill="#9a7a4c"
      stroke="#3e3329"
      stroke-width="7"
    />
    <path
      d="M154 378c26 11 54 13 84 3M172 350c14 22 29 43 47 62"
      stroke="#d0b276"
      stroke-width="5"
      stroke-linecap="round"
      opacity="0.55"
    />
    <circle
      cx="211"
      cy="386"
      r="13"
      fill="#d8b64f"
      stroke="#654"
      stroke-width="4"
    />
    <path
      d="M203 386h16"
      stroke="#6d5a22"
      stroke-width="4"
      stroke-linecap="round"
    />
    <path
      d="M285 355h34v34h-34z"
      rx="8"
      fill="#4d86a7"
      stroke="#253946"
      stroke-width="4"
    />
    <path
      d="M295 375h14M302 368v14"
      stroke="#d9f5ff"
      stroke-width="4"
      stroke-linecap="round"
    />
  </g>
</svg>
